<svg width="214" height="246" viewBox="0 0 214 246" fill="none" xmlns="http://www.w3.org/2000/svg">
<path d="M182.172 124.578C181.273 123.684 180.201 122.973 179.016 122.487C177.832 122 176.56 121.748 175.275 121.745C173.99 121.742 172.717 121.988 171.53 122.468C170.343 122.949 169.267 123.654 168.363 124.543C167.459 125.433 166.746 126.488 166.266 127.648C165.786 128.809 165.548 130.05 165.566 131.301C165.583 132.551 165.857 133.786 166.37 134.933C166.883 136.08 167.626 137.115 168.554 137.98C176.772 145.848 183.291 155.235 187.731 165.588C192.17 175.941 194.439 187.053 194.405 198.272C194.405 209.798 160.447 226.546 107.234 226.546C54.0212 226.546 20.0632 209.789 20.0632 198.253C20.0302 187.111 22.2689 176.073 26.6498 165.779C31.0307 155.485 37.4666 146.139 45.585 138.282C46.5101 137.412 47.2479 136.372 47.7556 135.222C48.2632 134.073 48.5304 132.836 48.5415 131.584C48.5527 130.333 48.3077 129.092 47.8207 127.934C47.3337 126.775 46.6145 125.723 45.705 124.838C44.7956 123.953 43.7142 123.253 42.5239 122.779C41.3335 122.305 40.0581 122.067 38.7721 122.078C37.486 122.089 36.2151 122.349 35.0334 122.843C33.8517 123.337 32.7829 124.055 31.8894 124.955C21.9651 134.561 14.0976 145.987 8.74246 158.572C3.38734 171.157 0.650996 184.65 0.691857 198.272C0.691857 228.884 55.5806 245.396 107.234 245.396C158.888 245.396 213.777 228.884 213.777 198.272C213.82 184.559 211.046 170.976 205.619 158.321C200.191 145.665 192.22 134.193 182.172 124.578Z" fill="#F3F2EE"/>
<path d="M107.237 132.293C120.647 132.293 133.755 128.424 144.905 121.174C156.054 113.925 164.744 103.621 169.876 91.5659C175.008 79.5106 176.35 66.2453 173.734 53.4474C171.118 40.6496 164.661 28.894 155.179 19.6673C145.697 10.4406 133.616 4.15711 120.464 1.61146C107.312 -0.934183 93.6802 0.372336 81.2914 5.3658C68.9026 10.3593 58.3138 18.8154 50.8638 29.6649C43.4139 40.5144 39.4375 53.2699 39.4375 66.3185C39.458 83.8099 46.6078 100.579 59.3182 112.948C72.0287 125.316 89.2619 132.273 107.237 132.293ZM107.237 19.1937C116.816 19.1937 126.179 21.9575 134.143 27.1356C142.107 32.3138 148.314 39.6737 151.979 48.2846C155.645 56.8955 156.604 66.3707 154.735 75.512C152.867 84.6533 148.254 93.0502 141.481 99.6407C134.708 106.231 126.079 110.719 116.685 112.538C107.291 114.356 97.5537 113.423 88.7045 109.856C79.8554 106.289 72.2919 100.249 66.9705 92.4996C61.6491 84.7499 58.8089 75.6388 58.8089 66.3185C58.8242 53.8248 63.9314 41.8471 73.0102 33.0127C82.089 24.1784 94.398 19.2087 107.237 19.1937Z" fill="#F3F2EE"/>
</svg>
