<svg width="20" height="23" viewBox="0 0 20 23" fill="none" xmlns="http://www.w3.org/2000/svg">
<path d="M17.0336 11.6604C16.9492 11.5765 16.8485 11.5098 16.7374 11.4641C16.6262 11.4185 16.5069 11.3948 16.3862 11.3945C16.2656 11.3942 16.1461 11.4173 16.0347 11.4624C15.9233 11.5075 15.8223 11.5737 15.7374 11.6572C15.6526 11.7407 15.5857 11.8397 15.5406 11.9486C15.4956 12.0575 15.4732 12.174 15.4749 12.2914C15.4766 12.4088 15.5022 12.5247 15.5504 12.6323C15.5986 12.7399 15.6683 12.8372 15.7554 12.9183C16.5267 13.6568 17.1386 14.5378 17.5553 15.5096C17.9719 16.4813 18.1849 17.5243 18.1818 18.5772C18.1818 19.6591 14.9945 21.2311 10 21.2311C5.00548 21.2311 1.81822 19.6582 1.81822 18.5754C1.81512 17.5297 2.02524 16.4937 2.43643 15.5275C2.84761 14.5613 3.45168 13.6841 4.21366 12.9466C4.30049 12.865 4.36974 12.7674 4.41739 12.6595C4.46503 12.5516 4.49011 12.4355 4.49116 12.318C4.49221 12.2006 4.46921 12.0841 4.4235 11.9754C4.37779 11.8667 4.31029 11.7679 4.22493 11.6848C4.13957 11.6018 4.03807 11.5361 3.92635 11.4916C3.81462 11.4471 3.69492 11.4247 3.57421 11.4258C3.4535 11.4268 3.33421 11.4512 3.2233 11.4975C3.11238 11.5439 3.01207 11.6113 2.92821 11.6958C1.99672 12.5974 1.25829 13.6698 0.755663 14.851C0.253038 16.0323 -0.00379283 17.2988 4.23257e-05 18.5772C4.23257e-05 21.4504 5.15184 23.0003 10 23.0003C14.8482 23.0003 20 21.4504 20 18.5772C20.004 17.2901 19.7437 16.0153 19.2342 14.8275C18.7248 13.6397 17.9766 12.5629 17.0336 11.6604Z" fill="#FF7600"/>
<path d="M10.0003 12.3846C11.2589 12.3846 12.4893 12.0214 13.5358 11.341C14.5822 10.6606 15.3979 9.6935 15.8795 8.562C16.3612 7.43051 16.4872 6.18544 16.2417 4.98425C15.9961 3.78306 15.39 2.6797 14.5001 1.81369C13.6101 0.947678 12.4762 0.357918 11.2418 0.118986C10.0074 -0.119945 8.72788 0.00268302 7.56508 0.471364C6.40228 0.940045 5.40842 1.73373 4.70918 2.75205C4.00994 3.77037 3.63672 4.96759 3.63672 6.19231C3.63864 7.83404 4.30971 9.40799 5.5027 10.5689C6.69569 11.7297 8.31318 12.3827 10.0003 12.3846ZM10.0003 1.76923C10.8993 1.76923 11.7781 2.02864 12.5256 2.51466C13.2731 3.00067 13.8557 3.69146 14.1998 4.49967C14.5438 5.30788 14.6338 6.19722 14.4584 7.05521C14.283 7.9132 13.8501 8.70132 13.2144 9.3199C12.5787 9.93848 11.7688 10.3597 10.8871 10.5304C10.0054 10.7011 9.09143 10.6135 8.26086 10.2787C7.4303 9.94393 6.7204 9.37701 6.22094 8.64964C5.72148 7.92227 5.45489 7.06711 5.45489 6.19231C5.45634 5.01967 5.93569 3.89546 6.78781 3.06627C7.63994 2.23709 8.79525 1.77064 10.0003 1.76923Z" fill="#FF7600"/>
</svg>
