<svg width="125" height="125" viewBox="0 0 125 125" fill="none" xmlns="http://www.w3.org/2000/svg">
<path d="M123.047 0H1.95312C1.43512 0 0.938339 0.205775 0.572057 0.572057C0.205775 0.938339 0 1.43512 0 1.95312L0 123.047C0 123.565 0.205775 124.062 0.572057 124.428C0.938339 124.794 1.43512 125 1.95312 125H123.047C123.565 125 124.062 124.794 124.428 124.428C124.794 124.062 125 123.565 125 123.047V1.95312C125 1.43512 124.794 0.938339 124.428 0.572057C124.062 0.205775 123.565 0 123.047 0ZM121.094 121.094H3.90625V3.90625H121.094V121.094Z" fill="#223F61"/>
<path d="M11.7188 60.5469H58.5938C59.1118 60.5469 59.6085 60.3411 59.9748 59.9748C60.3411 59.6085 60.5469 59.1118 60.5469 58.5938V11.7188C60.5469 11.2007 60.3411 10.704 59.9748 10.3377C59.6085 9.9714 59.1118 9.76562 58.5938 9.76562H11.7188C11.2007 9.76562 10.704 9.9714 10.3377 10.3377C9.9714 10.704 9.76562 11.2007 9.76562 11.7188V58.5938C9.76562 59.1118 9.9714 59.6085 10.3377 59.9748C10.704 60.3411 11.2007 60.5469 11.7188 60.5469ZM28.1523 56.6406L46.3027 38.4902L43.541 35.7285L22.6289 56.6406H16.4336L56.6406 16.4336V56.6406H28.1523ZM42.1602 13.6719L22.0566 33.7754L24.8184 36.5371L47.6836 13.6719H53.8789L13.6719 53.8789V13.6719H42.1602ZM66.4062 60.5469H113.281C113.799 60.5469 114.296 60.3411 114.662 59.9748C115.029 59.6085 115.234 59.1118 115.234 58.5938V11.7188C115.234 11.2007 115.029 10.704 114.662 10.3377C114.296 9.9714 113.799 9.76562 113.281 9.76562H66.4062C65.8882 9.76562 65.3915 9.9714 65.0252 10.3377C64.6589 10.704 64.4531 11.2007 64.4531 11.7188V58.5938C64.4531 59.1118 64.6589 59.6085 65.0252 59.9748C65.3915 60.3411 65.8882 60.5469 66.4062 60.5469ZM68.3594 13.6719H111.328V56.6406H68.3594V13.6719ZM11.7188 115.234H58.5938C59.1118 115.234 59.6085 115.029 59.9748 114.662C60.3411 114.296 60.5469 113.799 60.5469 113.281V66.4062C60.5469 65.8882 60.3411 65.3915 59.9748 65.0252C59.6085 64.6589 59.1118 64.4531 58.5938 64.4531H11.7188C11.2007 64.4531 10.704 64.6589 10.3377 65.0252C9.9714 65.3915 9.76562 65.8882 9.76562 66.4062V113.281C9.76562 113.799 9.9714 114.296 10.3377 114.662C10.704 115.029 11.2007 115.234 11.7188 115.234ZM13.6719 68.3594H56.6406V111.328H13.6719V68.3594ZM66.4062 115.234H113.281C113.799 115.234 114.296 115.029 114.662 114.662C115.029 114.296 115.234 113.799 115.234 113.281V66.4062C115.234 65.8882 115.029 65.3915 114.662 65.0252C114.296 64.6589 113.799 64.4531 113.281 64.4531H66.4062C65.8882 64.4531 65.3915 64.6589 65.0252 65.0252C64.6589 65.3915 64.4531 65.8882 64.4531 66.4062V113.281C64.4531 113.799 64.6589 114.296 65.0252 114.662C65.3915 115.029 65.8882 115.234 66.4062 115.234ZM82.8398 111.328L100.99 93.1777L98.2285 90.416L77.3164 111.328H71.1211L111.328 71.1211V111.328H82.8398ZM96.8477 68.3594L76.7441 88.4629L79.5059 91.2246L102.371 68.3594H108.566L68.3594 108.566V68.3594H96.8477Z" fill="#223F61"/>
</svg>
