<svg width="22" height="27" viewBox="0 0 22 27" fill="none" xmlns="http://www.w3.org/2000/svg">
<path d="M18.737 13.2234C18.6441 13.1282 18.5334 13.0526 18.4111 13.0008C18.2889 12.9491 18.1575 12.9222 18.0248 12.9219C17.8921 12.9215 17.7607 12.9477 17.6382 12.9988C17.5156 13.05 17.4045 13.1251 17.3112 13.2197C17.2179 13.3144 17.1443 13.4267 17.0947 13.5502C17.0451 13.6737 17.0205 13.8058 17.0224 13.939C17.0242 14.0721 17.0525 14.2035 17.1054 14.3255C17.1584 14.4476 17.2351 14.5579 17.331 14.6499C18.1794 15.4874 18.8525 16.4864 19.3108 17.5884C19.7691 18.6904 20.0034 19.8731 20 21.0672C20 22.294 16.494 24.0767 11 24.0767C5.50602 24.0767 2.00004 22.293 2.00004 21.0652C1.99663 19.8792 2.22777 18.7044 2.68007 17.6088C3.13237 16.5131 3.79685 15.5183 4.63503 14.682C4.73054 14.5895 4.80672 14.4788 4.85913 14.3564C4.91154 14.234 4.93912 14.1023 4.94028 13.9691C4.94143 13.8359 4.91613 13.7038 4.86585 13.5806C4.81557 13.4573 4.74131 13.3453 4.64742 13.2511C4.55353 13.1569 4.44188 13.0824 4.31898 13.032C4.19609 12.9815 4.06441 12.9561 3.93163 12.9573C3.79885 12.9584 3.66763 12.9861 3.54563 13.0387C3.42362 13.0913 3.31328 13.1677 3.22103 13.2635C2.19639 14.2859 1.38412 15.5021 0.831229 16.8416C0.278341 18.1811 -0.00417211 19.6174 4.65583e-05 21.0672C4.65583e-05 24.3255 5.66702 26.083 11 26.083C16.333 26.083 21.9999 24.3255 21.9999 21.0672C22.0044 19.6076 21.718 18.1619 21.1577 16.8149C20.5973 15.4679 19.7743 14.2468 18.737 13.2234Z" fill="#223F61"/>
<path d="M11.0002 14.0444C12.3847 14.0444 13.738 13.6325 14.8892 12.8609C16.0403 12.0893 16.9375 10.9926 17.4673 9.70947C17.9972 8.42633 18.1358 7.0144 17.8657 5.65223C17.5956 4.29006 16.9289 3.03883 15.9499 2.05676C14.971 1.07468 13.7237 0.405885 12.3658 0.134933C11.008 -0.13602 9.60052 0.0030426 8.32144 0.534536C7.04236 1.06603 5.94912 1.96608 5.17995 3.12087C4.41078 4.27567 4.00024 5.63334 4.00024 7.02219C4.00236 8.88394 4.74054 10.6688 6.05283 11.9853C7.36512 13.3017 9.14436 14.0423 11.0002 14.0444ZM11.0002 2.00634C11.9891 2.00634 12.9558 2.30052 13.7781 2.85167C14.6003 3.40282 15.2412 4.18618 15.6196 5.10271C15.998 6.01924 16.097 7.02776 15.9041 8.00074C15.7112 8.97372 15.235 9.86746 14.5357 10.5689C13.8365 11.2704 12.9456 11.7481 11.9757 11.9417C11.0058 12.1352 10.0004 12.0359 9.0868 11.6562C8.17318 11.2766 7.39229 10.6337 6.84288 9.80885C6.29348 8.984 6.00024 8.01424 6.00024 7.02219C6.00182 5.6924 6.52911 4.41752 7.46645 3.47721C8.40378 2.5369 9.67462 2.00794 11.0002 2.00634Z" fill="#223F61"/>
</svg>
