<svg width="20" height="25" viewBox="0 0 20 25" fill="none" xmlns="http://www.w3.org/2000/svg">
<path d="M17.0336 12.5806C16.9492 12.4945 16.8485 12.426 16.7374 12.3791C16.6262 12.3322 16.5069 12.3079 16.3862 12.3076C16.2656 12.3073 16.1461 12.331 16.0347 12.3773C15.9233 12.4236 15.8223 12.4916 15.7374 12.5773C15.6526 12.663 15.5857 12.7648 15.5406 12.8766C15.4956 12.9884 15.4732 13.1081 15.4749 13.2286C15.4766 13.3491 15.5022 13.4681 15.5504 13.5787C15.5986 13.6892 15.6683 13.789 15.7554 13.8724C16.5267 14.6307 17.1386 15.5354 17.5553 16.5333C17.9719 17.5311 18.1849 18.6021 18.1818 19.6834C18.1818 20.7943 14.9945 22.4085 10 22.4085C5.00548 22.4085 1.81822 20.7934 1.81822 19.6815C1.81512 18.6077 2.02524 17.5439 2.43643 16.5517C2.84761 15.5595 3.45168 14.6587 4.21366 13.9014C4.30049 13.8176 4.36974 13.7174 4.41739 13.6066C4.46503 13.4958 4.49011 13.3766 4.49116 13.2559C4.49221 13.1353 4.46921 13.0157 4.4235 12.9041C4.37779 12.7924 4.31029 12.691 4.22493 12.6057C4.13957 12.5204 4.03807 12.453 3.92635 12.4073C3.81462 12.3616 3.69492 12.3386 3.57421 12.3397C3.4535 12.3407 3.33421 12.3658 3.2233 12.4134C3.11238 12.461 3.01207 12.5302 2.92821 12.617C1.99672 13.5428 1.25829 14.6441 0.755663 15.857C0.253038 17.07 -0.00379283 18.3705 4.23257e-05 19.6834C4.23257e-05 22.6338 5.15184 24.2253 10 24.2253C14.8482 24.2253 20 22.6338 20 19.6834C20.004 18.3617 19.7437 17.0525 19.2342 15.8328C18.7248 14.6131 17.9766 13.5074 17.0336 12.5806Z" fill="#FF7600"/>
<path d="M10.0001 13.3249C11.2587 13.3249 12.489 12.952 13.5355 12.2533C14.582 11.5546 15.3977 10.5615 15.8793 9.39956C16.3609 8.23765 16.487 6.95912 16.2414 5.72564C15.9959 4.49217 15.3898 3.35914 14.4998 2.46986C13.6099 1.58057 12.476 0.97496 11.2416 0.729606C10.0072 0.484253 8.72765 0.610177 7.56485 1.09146C6.40205 1.57273 5.40819 2.38775 4.70895 3.43344C4.00971 4.47913 3.63649 5.70853 3.63649 6.96617C3.63841 8.65203 4.30948 10.2683 5.50247 11.4604C6.69546 12.6524 8.31295 13.323 10.0001 13.3249ZM10.0001 2.42421C10.8991 2.42421 11.7779 2.69059 12.5254 3.18967C13.2729 3.68875 13.8555 4.3981 14.1995 5.22804C14.5436 6.05797 14.6336 6.97121 14.4582 7.85226C14.2828 8.73332 13.8499 9.54262 13.2142 10.1778C12.5785 10.813 11.7686 11.2456 10.8869 11.4209C10.0051 11.5961 9.0912 11.5062 8.26063 11.1624C7.43006 10.8186 6.72016 10.2365 6.22071 9.48955C5.72125 8.74263 5.45466 7.86449 5.45466 6.96617C5.4561 5.76201 5.93546 4.60758 6.78758 3.75611C7.6397 2.90464 8.79501 2.42565 10.0001 2.42421Z" fill="#FF7600"/>
</svg>
