<svg width="214" height="246" viewBox="0 0 214 246" fill="none" xmlns="http://www.w3.org/2000/svg">
<path d="M181.57 125.072C180.671 124.178 179.598 123.467 178.414 122.981C177.23 122.495 175.958 122.242 174.673 122.239C173.387 122.236 172.114 122.482 170.927 122.962C169.741 123.443 168.664 124.148 167.76 125.038C166.857 125.927 166.144 126.982 165.664 128.143C165.183 129.303 164.945 130.544 164.963 131.795C164.981 133.046 165.254 134.28 165.767 135.427C166.281 136.574 167.023 137.61 167.952 138.474C176.169 146.343 182.689 155.729 187.128 166.082C191.567 176.436 193.837 187.547 193.803 198.766C193.803 210.292 159.845 227.041 106.632 227.041C53.4187 227.041 19.4607 210.283 19.4607 198.747C19.4277 187.605 21.6664 176.567 26.0473 166.273C30.4281 155.979 36.8641 146.633 44.9825 138.776C45.9075 137.906 46.6454 136.866 47.153 135.717C47.6606 134.567 47.9278 133.33 47.939 132.078C47.9502 130.827 47.7051 129.586 47.2181 128.428C46.7311 127.269 46.0119 126.217 45.1025 125.332C44.1931 124.447 43.1117 123.747 41.9213 123.273C40.731 122.8 39.4556 122.561 38.1695 122.572C36.8835 122.583 35.6125 122.843 34.4308 123.337C33.2491 123.831 32.1804 124.549 31.2869 125.449C21.3625 135.055 13.495 146.481 8.13992 159.066C2.7848 171.651 0.0484572 185.145 0.0893181 198.766C0.0893181 229.378 54.9781 245.89 106.632 245.89C158.286 245.89 213.174 229.378 213.174 198.766C213.217 185.053 210.444 171.47 205.016 158.815C199.589 146.159 191.617 134.687 181.57 125.072Z" fill="#F3F2EE"/>
<path d="M106.636 132.785C120.046 132.785 133.154 128.916 144.304 121.667C155.453 114.417 164.143 104.113 169.275 92.0581C174.407 80.0028 175.749 66.7374 173.133 53.9396C170.517 41.1418 164.06 29.3862 154.578 20.1595C145.096 10.9328 133.015 4.6493 119.863 2.10365C106.711 -0.441995 93.0791 0.864523 80.6903 5.85799C68.3016 10.8515 57.7127 19.3076 50.2627 30.1571C42.8128 41.0066 38.8364 53.7621 38.8364 66.8106C38.8569 84.3021 46.0067 101.071 58.7172 113.44C71.4277 125.808 88.6609 132.765 106.636 132.785ZM106.636 19.6859C116.214 19.6859 125.578 22.4497 133.542 27.6278C141.506 32.806 147.713 40.1658 151.378 48.7768C155.044 57.3877 156.003 66.8629 154.134 76.0042C152.265 85.1455 147.653 93.5424 140.88 100.133C134.107 106.723 125.478 111.212 116.084 113.03C106.69 114.848 96.9526 113.915 88.1035 110.348C79.2543 106.781 71.6908 100.741 66.3694 92.9918C61.0481 85.2421 58.2078 76.131 58.2078 66.8106C58.2232 54.317 63.3304 42.3393 72.4091 33.5049C81.4879 24.6706 93.7969 19.7008 106.636 19.6859Z" fill="#F3F2EE"/>
</svg>
