<svg width="206" height="34" viewBox="0 0 206 34" fill="none" xmlns="http://www.w3.org/2000/svg">
<ellipse opacity="0.05" cx="16.2712" cy="17.0679" rx="16.2321" ry="16.1147" fill="white"/>
<ellipse opacity="0.05" cx="59.4787" cy="17.0679" rx="16.2321" ry="16.1147" fill="white"/>
<ellipse opacity="0.05" cx="102.683" cy="17.0679" rx="16.2321" ry="16.1147" fill="white"/>
<ellipse opacity="0.05" cx="145.891" cy="17.0679" rx="16.2321" ry="16.1147" fill="white"/>
<ellipse opacity="0.05" cx="189.098" cy="17.0679" rx="16.2321" ry="16.1147" fill="white"/>
<path d="M16.2698 10.0708C18.55 10.0708 18.861 10.0708 19.7938 10.0708C20.623 10.0708 21.0376 10.2766 21.3485 10.3795C21.7631 10.5853 22.074 10.6882 22.385 10.9969C22.6959 11.3056 22.9032 11.6143 23.0069 12.0259C23.1105 12.3346 23.2142 12.7462 23.3178 13.5694C23.3178 14.4954 23.3178 14.7012 23.3178 17.0679C23.3178 19.4346 23.3178 19.6403 23.3178 20.5664C23.3178 21.3896 23.1105 21.8012 23.0069 22.1099C22.7996 22.5215 22.6959 22.8302 22.385 23.1389C22.074 23.4476 21.7631 23.6534 21.3485 23.7563C21.0376 23.8592 20.623 23.9621 19.7938 24.065C18.861 24.065 18.6537 24.065 16.2698 24.065C13.8859 24.065 13.6786 24.065 12.7457 24.065C11.9166 24.065 11.502 23.8592 11.191 23.7563C10.7764 23.5505 10.4655 23.4476 10.1545 23.1389C9.8436 22.8302 9.6363 22.5215 9.53265 22.1099C9.42901 21.8012 9.32536 21.3896 9.22171 20.5664C9.22171 19.6403 9.22171 19.4346 9.22171 17.0679C9.22171 14.7012 9.22171 14.4954 9.22171 13.5694C9.22171 12.7462 9.42901 12.3346 9.53265 12.0259C9.73995 11.6143 9.8436 11.3056 10.1545 10.9969C10.4655 10.6882 10.7764 10.4824 11.191 10.3795C11.502 10.2766 11.9166 10.1737 12.7457 10.0708C13.6786 10.0708 13.9895 10.0708 16.2698 10.0708ZM16.2698 8.52734C13.8859 8.52734 13.6786 8.52734 12.7457 8.52734C11.8129 8.52734 11.191 8.73314 10.6728 8.93894C10.1545 9.14473 9.6363 9.45343 9.11806 9.96792C8.59982 10.4824 8.39253 10.894 8.08158 11.5114C7.87429 12.0259 7.77064 12.6433 7.66699 13.5694C7.66699 14.4954 7.66699 14.8041 7.66699 17.0679C7.66699 19.4346 7.66699 19.6403 7.66699 20.5664C7.66699 21.4925 7.87429 22.1099 8.08158 22.6244C8.28888 23.1389 8.59982 23.6534 9.11806 24.1679C9.6363 24.6824 10.0509 24.8882 10.6728 25.1969C11.191 25.4027 11.8129 25.5055 12.7457 25.6084C13.6786 25.6084 13.9895 25.6084 16.2698 25.6084C18.55 25.6084 18.861 25.6084 19.7938 25.6084C20.7266 25.6084 21.3485 25.4027 21.8667 25.1969C22.385 24.9911 22.9032 24.6824 23.4215 24.1679C23.9397 23.6534 24.147 23.2418 24.4579 22.6244C24.6652 22.1099 24.7689 21.4925 24.8725 20.5664C24.8725 19.6403 24.8725 19.3317 24.8725 17.0679C24.8725 14.8041 24.8725 14.4954 24.8725 13.5694C24.8725 12.6433 24.6652 12.0259 24.4579 11.5114C24.2506 10.9969 23.9397 10.4824 23.4215 9.96792C22.9032 9.45343 22.4886 9.24763 21.8667 8.93894C21.3485 8.73314 20.7266 8.63024 19.7938 8.52734C18.861 8.52734 18.6537 8.52734 16.2698 8.52734Z" fill="white"/>
<path d="M16.2698 12.6433C13.7822 12.6433 11.8129 14.5983 11.8129 17.0679C11.8129 19.5375 13.7822 21.4925 16.2698 21.4925C18.7573 21.4925 20.7266 19.5375 20.7266 17.0679C20.7266 14.5983 18.7573 12.6433 16.2698 12.6433ZM16.2698 19.949C14.715 19.949 13.3676 18.7143 13.3676 17.0679C13.3676 15.5244 14.6114 14.1867 16.2698 14.1867C17.8245 14.1867 19.1719 15.4215 19.1719 17.0679C19.1719 18.6114 17.8245 19.949 16.2698 19.949Z" fill="white"/>
<path d="M20.8303 13.5694C21.4027 13.5694 21.8667 13.1087 21.8667 12.5404C21.8667 11.9721 21.4027 11.5114 20.8303 11.5114C20.2578 11.5114 19.7938 11.9721 19.7938 12.5404C19.7938 13.1087 20.2578 13.5694 20.8303 13.5694Z" fill="white"/>
<path d="M68.081 17.0686C68.081 12.372 64.2103 8.5293 59.4794 8.5293C54.7486 8.5293 50.8779 12.372 50.8779 17.0686C50.8779 21.3383 53.996 24.8607 58.0817 25.5012V19.5236H55.9313V17.0686H58.0817V15.1473C58.0817 13.0124 59.3719 11.8383 61.3073 11.8383C62.2749 11.8383 63.2426 12.0518 63.2426 12.0518V14.1866H62.1674C61.0922 14.1866 60.7697 14.827 60.7697 15.4675V17.0686H63.1351L62.705 19.5236H60.6622V25.6079C64.9629 24.9675 68.081 21.3383 68.081 17.0686Z" fill="white"/>
<path d="M110.855 12.9064C110.64 12.1592 110.103 11.6255 109.35 11.412C108.06 11.0918 102.577 11.0918 102.577 11.0918C102.577 11.0918 97.2006 11.0918 95.8028 11.412C95.0502 11.6255 94.5126 12.1592 94.2976 12.9064C94.0825 14.294 94.0825 17.0693 94.0825 17.0693C94.0825 17.0693 94.0825 19.8446 94.4051 21.2322C94.6201 21.9794 95.1577 22.5131 95.9103 22.7266C97.2006 23.0468 102.684 23.0468 102.684 23.0468C102.684 23.0468 108.06 23.0468 109.458 22.7266C110.21 22.5131 110.748 21.9794 110.963 21.2322C111.286 19.8446 111.286 17.0693 111.286 17.0693C111.286 17.0693 111.286 14.294 110.855 12.9064ZM100.964 19.6311V14.5075L105.48 17.0693L100.964 19.6311Z" fill="white"/>
<path d="M154.493 11.7339C153.848 12.0542 153.203 12.1609 152.45 12.2676C153.203 11.8407 153.74 11.2002 153.955 10.3463C153.31 10.7733 152.558 10.9867 151.698 11.2002C151.052 10.5598 150.085 10.1328 149.117 10.1328C146.859 10.1328 145.139 12.2676 145.677 14.4025C142.774 14.2957 140.193 12.9081 138.365 10.7733C137.398 12.3744 137.935 14.4025 139.44 15.4699C138.903 15.4699 138.365 15.2564 137.828 15.0429C137.828 16.644 139.01 18.1384 140.623 18.5654C140.086 18.6721 139.548 18.7789 139.01 18.6721C139.44 20.0598 140.731 21.1272 142.343 21.1272C141.053 22.0878 139.118 22.6215 137.29 22.4081C138.903 23.3687 140.731 24.0092 142.666 24.0092C149.225 24.0092 152.88 18.5654 152.665 13.5485C153.418 13.1216 154.063 12.4811 154.493 11.7339Z" fill="white"/>
<path d="M189.099 8.52734C184.348 8.52734 180.498 12.35 180.498 17.0666C180.498 20.6858 182.766 23.7747 185.964 25.0189C185.89 24.3417 185.82 23.3077 185.994 22.5705C186.152 21.9034 187.002 18.3275 187.002 18.3275C187.002 18.3275 186.744 17.8172 186.744 17.06C186.744 15.8725 187.436 14.9852 188.299 14.9852C189.032 14.9852 189.388 15.5322 189.388 16.1894C189.388 16.9232 188.918 18.0173 188.676 19.0314C188.474 19.8819 189.106 20.5758 189.949 20.5758C191.478 20.5758 192.654 18.9746 192.654 16.6664C192.654 14.6216 191.176 13.1906 189.062 13.1906C186.616 13.1906 185.178 15.0119 185.178 16.8965C185.178 17.6304 185.464 18.4176 185.82 18.8446C185.89 18.9279 185.9 19.0047 185.88 19.0881C185.816 19.3582 185.669 19.9387 185.642 20.0554C185.605 20.2122 185.517 20.2455 185.353 20.1688C184.278 19.6718 183.606 18.114 183.606 16.8598C183.606 14.1646 185.578 11.6929 189.287 11.6929C192.271 11.6929 194.589 13.8044 194.589 16.6263C194.589 19.5684 192.721 21.9367 190.127 21.9367C189.257 21.9367 188.437 21.4864 188.155 20.956C188.155 20.956 187.725 22.5872 187.621 22.9875C187.426 23.728 186.902 24.6586 186.552 25.2257C187.359 25.4725 188.212 25.6059 189.099 25.6059C193.85 25.6059 197.701 21.7833 197.701 17.0666C197.701 12.35 193.85 8.52734 189.099 8.52734Z" fill="white"/>
</svg>
