<svg width="206" height="33" viewBox="0 0 206 33" fill="none" xmlns="http://www.w3.org/2000/svg">
<ellipse opacity="0.05" cx="16.2712" cy="16.0815" rx="16.2321" ry="16.0815" fill="white"/>
<ellipse opacity="0.05" cx="59.4787" cy="16.0815" rx="16.2321" ry="16.0815" fill="white"/>
<ellipse opacity="0.05" cx="102.683" cy="16.0815" rx="16.2321" ry="16.0815" fill="white"/>
<ellipse opacity="0.05" cx="145.891" cy="16.0815" rx="16.2321" ry="16.0815" fill="white"/>
<ellipse opacity="0.05" cx="189.098" cy="16.0815" rx="16.2321" ry="16.0815" fill="white"/>
<path d="M16.2698 9.09889C18.55 9.09889 18.861 9.09889 19.7938 9.09889C20.623 9.09889 21.0376 9.30426 21.3485 9.40694C21.7631 9.61232 22.074 9.715 22.385 10.0231C22.6959 10.3311 22.9032 10.6392 23.0069 11.0499C23.1105 11.358 23.2142 11.7687 23.3178 12.5902C23.3178 13.5144 23.3178 13.7198 23.3178 16.0815C23.3178 18.4433 23.3178 18.6487 23.3178 19.5729C23.3178 20.3944 23.1105 20.8051 23.0069 21.1132C22.7996 21.5239 22.6959 21.832 22.385 22.14C22.074 22.4481 21.7631 22.6535 21.3485 22.7561C21.0376 22.8588 20.623 22.9615 19.7938 23.0642C18.861 23.0642 18.6537 23.0642 16.2698 23.0642C13.8859 23.0642 13.6786 23.0642 12.7457 23.0642C11.9166 23.0642 11.502 22.8588 11.191 22.7561C10.7764 22.5508 10.4655 22.4481 10.1545 22.14C9.8436 21.832 9.6363 21.5239 9.53265 21.1132C9.42901 20.8051 9.32536 20.3944 9.22171 19.5729C9.22171 18.6487 9.22171 18.4433 9.22171 16.0815C9.22171 13.7198 9.22171 13.5144 9.22171 12.5902C9.22171 11.7687 9.42901 11.358 9.53265 11.0499C9.73995 10.6392 9.8436 10.3311 10.1545 10.0231C10.4655 9.715 10.7764 9.50963 11.191 9.40694C11.502 9.30426 11.9166 9.20157 12.7457 9.09889C13.6786 9.09889 13.9895 9.09889 16.2698 9.09889ZM16.2698 7.55859C13.8859 7.55859 13.6786 7.55859 12.7457 7.55859C11.8129 7.55859 11.191 7.76397 10.6728 7.96934C10.1545 8.17471 9.6363 8.48277 9.11806 8.9962C8.59982 9.50963 8.39253 9.92038 8.08158 10.5365C7.87429 11.0499 7.77064 11.666 7.66699 12.5902C7.66699 13.5144 7.66699 13.8224 7.66699 16.0815C7.66699 18.4433 7.66699 18.6487 7.66699 19.5729C7.66699 20.497 7.87429 21.1132 8.08158 21.6266C8.28888 22.14 8.59982 22.6535 9.11806 23.1669C9.6363 23.6803 10.0509 23.8857 10.6728 24.1938C11.191 24.3991 11.8129 24.5018 12.7457 24.6045C13.6786 24.6045 13.9895 24.6045 16.2698 24.6045C18.55 24.6045 18.861 24.6045 19.7938 24.6045C20.7266 24.6045 21.3485 24.3991 21.8667 24.1938C22.385 23.9884 22.9032 23.6803 23.4215 23.1669C23.9397 22.6535 24.147 22.2427 24.4579 21.6266C24.6652 21.1132 24.7689 20.497 24.8725 19.5729C24.8725 18.6487 24.8725 18.3406 24.8725 16.0815C24.8725 13.8224 24.8725 13.5144 24.8725 12.5902C24.8725 11.666 24.6652 11.0499 24.4579 10.5365C24.2506 10.0231 23.9397 9.50963 23.4215 8.9962C22.9032 8.48277 22.4886 8.2774 21.8667 7.96934C21.3485 7.76397 20.7266 7.66128 19.7938 7.55859C18.861 7.55859 18.6537 7.55859 16.2698 7.55859Z" fill="white"/>
<path d="M16.2698 11.666C13.7822 11.666 11.8129 13.6171 11.8129 16.0815C11.8129 18.546 13.7822 20.497 16.2698 20.497C18.7573 20.497 20.7266 18.546 20.7266 16.0815C20.7266 13.6171 18.7573 11.666 16.2698 11.666ZM16.2698 18.9568C14.715 18.9568 13.3676 17.7245 13.3676 16.0815C13.3676 14.5413 14.6114 13.2063 16.2698 13.2063C17.8245 13.2063 19.1719 14.4386 19.1719 16.0815C19.1719 17.6218 17.8245 18.9568 16.2698 18.9568Z" fill="white"/>
<path d="M20.8303 12.5902C21.4027 12.5902 21.8667 12.1305 21.8667 11.5634C21.8667 10.9962 21.4027 10.5365 20.8303 10.5365C20.2578 10.5365 19.7938 10.9962 19.7938 11.5634C19.7938 12.1305 20.2578 12.5902 20.8303 12.5902Z" fill="white"/>
<path d="M68.081 16.0823C68.081 11.3953 64.2103 7.56055 59.4794 7.56055C54.7486 7.56055 50.8779 11.3953 50.8779 16.0823C50.8779 20.3431 53.996 23.8583 58.0817 24.4974V18.5322H55.9313V16.0823H58.0817V14.1649C58.0817 12.0344 59.3719 10.8627 61.3073 10.8627C62.2749 10.8627 63.2426 11.0758 63.2426 11.0758V13.2062H62.1674C61.0922 13.2062 60.7697 13.8453 60.7697 14.4844V16.0823H63.1351L62.705 18.5322H60.6622V24.604C64.9629 23.9648 68.081 20.3431 68.081 16.0823Z" fill="white"/>
<path d="M110.855 11.9281C110.64 11.1824 110.103 10.6498 109.35 10.4368C108.06 10.1172 102.577 10.1172 102.577 10.1172C102.577 10.1172 97.2006 10.1172 95.8028 10.4368C95.0502 10.6498 94.5126 11.1824 94.2976 11.9281C94.0825 13.3128 94.0825 16.0824 94.0825 16.0824C94.0825 16.0824 94.0825 18.8519 94.4051 20.2367C94.6201 20.9824 95.1577 21.515 95.9103 21.728C97.2006 22.0476 102.684 22.0476 102.684 22.0476C102.684 22.0476 108.06 22.0476 109.458 21.728C110.21 21.515 110.748 20.9824 110.963 20.2367C111.286 18.8519 111.286 16.0824 111.286 16.0824C111.286 16.0824 111.286 13.3128 110.855 11.9281ZM100.964 18.6389V13.5259L105.48 16.0824L100.964 18.6389Z" fill="white"/>
<path d="M154.493 10.758C153.848 11.0775 153.203 11.1841 152.45 11.2906C153.203 10.8645 153.74 10.2254 153.955 9.3732C153.31 9.79928 152.558 10.0123 151.698 10.2254C151.052 9.58624 150.085 9.16016 149.117 9.16016C146.859 9.16016 145.139 11.2906 145.677 13.421C142.774 13.3145 140.193 11.9297 138.365 9.79928C137.398 11.3971 137.935 13.421 139.44 14.4862C138.903 14.4862 138.365 14.2732 137.828 14.0601C137.828 15.658 139.01 17.1493 140.623 17.5753C140.086 17.6819 139.548 17.7884 139.01 17.6819C139.44 19.0666 140.731 20.1319 142.343 20.1319C141.053 21.0905 139.118 21.6232 137.29 21.4101C138.903 22.3688 140.731 23.0079 142.666 23.0079C149.225 23.0079 152.88 17.5753 152.665 12.5688C153.418 12.1428 154.063 11.5036 154.493 10.758Z" fill="white"/>
<path d="M189.099 7.55859C184.348 7.55859 180.498 11.3734 180.498 16.0803C180.498 19.692 182.766 22.7745 185.964 24.0161C185.89 23.3404 185.82 22.3085 185.994 21.5728C186.152 20.907 187.002 17.3386 187.002 17.3386C187.002 17.3386 186.744 16.8293 186.744 16.0736C186.744 14.8886 187.436 14.0031 188.299 14.0031C189.032 14.0031 189.388 14.5491 189.388 15.2048C189.388 15.9372 188.918 17.029 188.676 18.041C188.474 18.8898 189.106 19.5822 189.949 19.5822C191.478 19.5822 192.654 17.9844 192.654 15.6808C192.654 13.6403 191.176 12.2122 189.062 12.2122C186.616 12.2122 185.178 14.0298 185.178 15.9105C185.178 16.6429 185.464 17.4285 185.82 17.8545C185.89 17.9378 185.9 18.0143 185.88 18.0975C185.816 18.3672 185.669 18.9464 185.642 19.0629C185.605 19.2193 185.517 19.2526 185.353 19.1761C184.278 18.6801 183.606 17.1255 183.606 15.8739C183.606 13.1843 185.578 10.7176 189.287 10.7176C192.271 10.7176 194.589 12.8247 194.589 15.6409C194.589 18.5769 192.721 20.9403 190.127 20.9403C189.257 20.9403 188.437 20.4909 188.155 19.9617C188.155 19.9617 187.725 21.5894 187.621 21.9889C187.426 22.7279 186.902 23.6566 186.552 24.2225C187.359 24.4689 188.212 24.602 189.099 24.602C193.85 24.602 197.701 20.7872 197.701 16.0803C197.701 11.3734 193.85 7.55859 189.099 7.55859Z" fill="white"/>
</svg>
