<svg width="20" height="5" viewBox="0 0 20 5" fill="none" xmlns="http://www.w3.org/2000/svg">
<path d="M17.0336 2.69535C16.9492 2.67885 16.8485 2.66573 16.7374 2.65676C16.6262 2.64778 16.5069 2.64313 16.3862 2.64307C16.2656 2.64301 16.1461 2.64754 16.0347 2.65641C15.9233 2.66528 15.8223 2.6783 15.7374 2.69472C15.6526 2.71113 15.5857 2.73062 15.5406 2.75203C15.4956 2.77345 15.4732 2.79636 15.4749 2.81945C15.4766 2.84253 15.5022 2.86532 15.5504 2.88649C15.5986 2.90765 15.6683 2.92677 15.7554 2.94273C16.5267 3.08797 17.1386 3.26122 17.5553 3.45232C17.9719 3.64343 18.1849 3.84853 18.1818 4.0556C18.1818 4.26836 14.9945 4.5775 10 4.5775C5.00548 4.5775 1.81822 4.26819 1.81822 4.05525C1.81512 3.84959 2.02524 3.64586 2.43643 3.45585C2.84761 3.26584 3.45168 3.09333 4.21366 2.9483C4.30049 2.93225 4.36974 2.91306 4.41739 2.89183C4.46503 2.87061 4.49011 2.84778 4.49116 2.82468C4.49221 2.80158 4.46921 2.77867 4.4235 2.75729C4.37779 2.73591 4.31029 2.71649 4.22493 2.70016C4.13957 2.68382 4.03807 2.6709 3.92635 2.66216C3.81462 2.65341 3.69492 2.64901 3.57421 2.64921C3.4535 2.64941 3.33421 2.65421 3.2233 2.66333C3.11238 2.67244 3.01207 2.6857 2.92821 2.70231C1.99672 2.87962 1.25829 3.09052 0.755663 3.32282C0.253038 3.55511 -0.00379283 3.80418 4.23257e-05 4.0556C4.23257e-05 4.62064 5.15184 4.92544 10 4.92544C14.8482 4.92544 20 4.62064 20 4.0556C20.004 3.80249 19.7437 3.55177 19.2342 3.31818C18.7248 3.08459 17.9766 2.87283 17.0336 2.69535Z" fill="#F3F2EE"/>
<path d="M10.0001 2.83788C11.2587 2.83788 12.489 2.76646 13.5355 2.63265C14.582 2.49884 15.3976 2.30865 15.8793 2.08613C16.3609 1.86361 16.487 1.61876 16.2414 1.38254C15.9959 1.14631 15.3898 0.929328 14.4998 0.75902C13.6099 0.588712 12.476 0.472731 11.2416 0.425743C10.0071 0.378756 8.72763 0.402871 7.56484 0.495041C6.40204 0.587211 5.40818 0.743296 4.70894 0.943557C4.00969 1.14382 3.63647 1.37926 3.63647 1.62011C3.6384 1.94297 4.30947 2.2525 5.50246 2.4808C6.69545 2.70909 8.31294 2.83751 10.0001 2.83788ZM10.0001 0.750278C10.8991 0.750278 11.7779 0.801293 12.5254 0.896872C13.2729 0.99245 13.8555 1.1283 14.1995 1.28724C14.5436 1.44618 14.6336 1.62108 14.4582 1.78981C14.2828 1.95854 13.8499 2.11353 13.2142 2.23518C12.5785 2.35683 11.7686 2.43967 10.8869 2.47323C10.0051 2.5068 9.09119 2.48957 8.26062 2.42374C7.43005 2.3579 6.72015 2.24641 6.22069 2.10337C5.72123 1.96032 5.45465 1.79215 5.45465 1.62011C5.45609 1.3895 5.93545 1.16842 6.78757 1.00535C7.63969 0.842286 8.795 0.750554 10.0001 0.750278Z" fill="#F3F2EE"/>
</svg>
