<svg width="20" height="25" viewBox="0 0 20 25" fill="none" xmlns="http://www.w3.org/2000/svg">
<path d="M19.789 10.0516L15.4061 15.4671L16.4411 23.1158C16.4633 23.2798 16.4488 23.4484 16.3993 23.6025C16.3499 23.7567 16.2674 23.8902 16.1611 23.988C16.0549 24.0858 15.9292 24.144 15.7983 24.156C15.6673 24.1679 15.5364 24.1333 15.4202 24.0558L10.0008 20.4446L4.58215 24.0549C4.46595 24.1324 4.33497 24.167 4.20403 24.1551C4.07308 24.1431 3.9474 24.0849 3.84118 23.9871C3.73496 23.8893 3.65245 23.7558 3.60297 23.6016C3.55348 23.4475 3.53901 23.2789 3.56118 23.1149L4.59622 15.4662L0.212609 10.0516C0.118518 9.93543 0.051969 9.78817 0.0204946 9.62651C-0.0109798 9.46485 -0.00612221 9.29525 0.0345174 9.13691C0.075157 8.97857 0.149956 8.83781 0.250446 8.73057C0.350937 8.62332 0.473106 8.55388 0.603124 8.53009L6.66067 7.41525L9.36965 0.456862C9.60677 -0.152287 10.3948 -0.152287 10.632 0.456862L13.3409 7.41525L19.3985 8.53009C19.5282 8.5545 19.65 8.62429 19.7501 8.73161C19.8503 8.83893 19.9248 8.97952 19.9654 9.1376C20.006 9.29567 20.011 9.46496 19.9798 9.62643C19.9486 9.7879 19.8826 9.93515 19.789 10.0516Z" fill="#223F61"/>
</svg>
