<svg width="132" height="132" viewBox="0 0 132 132" fill="none" xmlns="http://www.w3.org/2000/svg">
<path d="M78.3236 25.2964C60.0702 25.2964 45.2197 43.5562 45.2197 66.0005C45.2197 88.4448 60.0702 106.705 78.3236 106.705C96.577 106.705 111.427 88.4448 111.427 66.0005C111.427 43.5562 96.577 25.2964 78.3236 25.2964ZM93.9337 70.7556H74.4564V37.3778H82.1908V61.2454H93.9337V70.7556Z" fill="#DFDACA"/>
<path d="M78.4714 0.000244447C66.6948 -0.0387472 55.8002 4.5889 46.9361 12.4592H17.6663C13.0518 12.4592 9.31116 17.0589 9.31116 22.7327C9.31116 28.4068 13.052 33.0062 17.6663 33.0062H31.8267C29.0901 38.8235 27.0969 45.1235 25.9169 51.6854H8.35519C3.74086 51.6857 0 56.2852 0 61.9593C0 67.6333 3.74086 72.2328 8.35519 72.2328H24.8872C25.3739 78.6501 26.6273 84.9441 28.6069 90.912H22.639C18.0244 90.912 14.2838 95.5117 14.2838 101.185C14.2838 106.86 18.0247 111.459 22.639 111.459H39.4108C49.1901 124.111 63.0073 132 78.3237 132C107.968 132 132 102.451 132 66.0004C132 29.5344 108.128 0.0985161 78.4714 0.000244447ZM78.3237 116.214C55.8056 116.214 37.4857 93.6883 37.4857 66.0001C37.4857 38.3119 55.8056 15.7858 78.3237 15.7858C100.842 15.7858 119.162 38.3119 119.162 66.0001C119.162 93.6883 100.842 116.214 78.3237 116.214Z" fill="#DFDACA"/>
</svg>
