<svg width="132" height="132" viewBox="0 0 132 132" fill="none" xmlns="http://www.w3.org/2000/svg">
<path d="M120.822 29.2774L118.846 29.9035L108.328 30.8404L105.357 35.5841L103.201 34.8993L94.83 27.353L93.6156 23.4287L91.9893 19.2438L86.7279 14.5253L80.521 13.311L80.3782 16.1514L86.459 22.0841L89.4342 25.5883L86.0892 27.3362L83.366 26.5337L79.2856 24.832L79.4242 21.5421L74.0704 19.3404L72.2928 27.0757L66.897 28.2984L67.4307 32.6135L74.4613 33.9665L75.6757 27.0715L81.4792 27.9287L84.1771 29.5085H88.5055L91.4682 35.4413L99.3223 43.4077L98.7466 46.5043L92.4137 45.6976L81.4708 51.2228L73.5914 60.6724L72.566 64.8572H69.7378L64.4681 62.4287L59.3496 64.8572L60.6229 70.2564L62.8502 67.6892L66.7668 67.5673L66.4936 72.4161L69.7378 73.3656L72.9778 77.0043L78.2686 75.5169L84.3116 76.4707L91.3295 78.3572L94.8342 78.769L100.776 85.5127L112.245 92.2564L104.827 106.424L96.9985 110.063L94.0274 118.16L82.6979 125.723L81.4918 130.084C110.454 123.109 132 97.0967 132 65.9959C132.012 52.9169 128.119 40.1319 120.822 29.2774Z" fill="#DFDACA"/>
<path d="M73.5873 100.492L68.7798 91.5798L73.1923 82.3866L68.7798 81.0672L63.8253 76.0925L52.8487 73.6303L49.2053 66.0084V70.5336H47.6L38.1405 57.7101V47.1765L31.2066 35.9034L20.1965 37.8656H12.7793L9.04766 35.4202L13.8089 31.6471L9.06026 32.7437C3.12808 42.8245 -5.07418e-05 54.308 6.17322e-10 66.0042C6.17314e-10 102.445 29.5467 132 65.9979 132C68.8051 132 71.5576 131.752 74.2807 131.424L73.5915 123.429C73.5915 123.429 76.6214 111.555 76.6214 111.151C76.6172 110.744 73.5873 100.492 73.5873 100.492ZM24.5249 21.2815L36.2495 19.6471L41.6537 16.6849L47.7345 18.437L57.4503 17.8992L60.7786 12.6681L65.6323 13.4664L77.4199 12.3614L80.6683 8.78155L85.2488 5.72273L91.7289 6.69752L94.0906 6.34037C85.3086 2.17711 75.7128 0.0117424 65.9937 4.12585e-05C56.2632 -0.0108524 46.6513 2.1356 37.85 6.28486C29.0488 10.4341 21.2772 16.4829 15.0948 23.9958H15.1285L24.5249 21.2815ZM68.784 6.56306L75.5246 2.85298L79.853 5.35298L73.5873 10.1219L67.6032 10.7227L64.9095 8.97483L68.784 6.56306ZM48.8187 7.10508L51.794 8.34458L55.6895 7.10508L57.8117 10.7815L48.8187 13.1429L44.4945 10.6135C44.4903 10.6135 48.722 7.89079 48.8187 7.10508Z" fill="#DFDACA"/>
</svg>
