<svg width="34" height="31" viewBox="0 0 34 31" fill="none" xmlns="http://www.w3.org/2000/svg">
<path d="M17 30.2491C16.5159 30.2491 16.0493 30.0737 15.6856 29.7552C14.3121 28.5542 12.9879 27.4255 11.8195 26.43L11.8135 26.4248C8.38817 23.5058 5.43024 20.9849 3.37218 18.5016C1.0716 15.7257 0 13.0935 0 10.218C0 7.42429 0.957977 4.84686 2.69722 2.96026C4.45725 1.05134 6.87225 0 9.49815 0C11.4608 0 13.2581 0.6205 14.8403 1.8441C15.6387 2.46168 16.3624 3.21758 17 4.09926C17.6378 3.21758 18.3613 2.46168 19.16 1.8441C20.7421 0.6205 22.5395 0 24.5021 0C27.1278 0 29.543 1.05134 31.303 2.96026C33.0423 4.84686 34 7.42429 34 10.218C34 13.0934 32.9287 15.7256 30.6281 18.5014C28.57 20.9849 25.6123 23.5055 22.1875 26.4242C21.017 27.4214 19.6908 28.5518 18.3141 29.7557C17.9503 30.0739 17.4833 30.2492 17 30.2491ZM9.49815 1.99166C7.43518 1.99166 5.54001 2.81503 4.16128 4.31016C2.7621 5.82795 1.99139 7.92598 1.99139 10.218C1.99139 12.6364 2.8902 14.7992 4.9055 17.2309C6.85332 19.5813 9.75056 22.0503 13.1051 24.9091L13.1113 24.9143C14.284 25.9137 15.6135 27.0468 16.9971 28.2567C18.3891 27.0445 19.7206 25.9096 20.8957 24.9086C24.25 22.0497 27.1469 19.5813 29.0948 17.2309C31.1098 14.7992 32.0086 12.6364 32.0086 10.218C32.0086 7.92592 31.2379 5.82788 29.8387 4.31016C28.4603 2.81503 26.5649 1.99166 24.5021 1.99166C22.9908 1.99166 21.6033 2.47211 20.3782 3.41939C19.2864 4.26401 18.5258 5.33169 18.0798 6.07876C17.8506 6.46292 17.447 6.69222 17 6.69222C16.553 6.69222 16.1494 6.46292 15.9201 6.07876C15.4745 5.33169 14.7139 4.26401 13.6218 3.41939C12.3967 2.47211 11.0092 1.99166 9.49815 1.99166Z" fill="#E88B3B"/>
</svg>
