<svg width="206" height="33" viewBox="0 0 206 33" fill="none" xmlns="http://www.w3.org/2000/svg">
<ellipse opacity="0.05" cx="16.2712" cy="16.2329" rx="16.2321" ry="16.1147" fill="white"/>
<ellipse opacity="0.05" cx="59.479" cy="16.2329" rx="16.2321" ry="16.1147" fill="white"/>
<ellipse opacity="0.05" cx="102.683" cy="16.2329" rx="16.2321" ry="16.1147" fill="white"/>
<ellipse opacity="0.05" cx="145.891" cy="16.2329" rx="16.2321" ry="16.1147" fill="white"/>
<ellipse opacity="0.05" cx="189.098" cy="16.2329" rx="16.2321" ry="16.1147" fill="white"/>
<path d="M16.27 9.23586C18.5503 9.23586 18.8612 9.23586 19.794 9.23586C20.6232 9.23586 21.0378 9.44165 21.3488 9.54455C21.7633 9.75035 22.0743 9.85325 22.3852 10.1619C22.6962 10.4706 22.9035 10.7793 23.0071 11.1909C23.1108 11.4996 23.2144 11.9112 23.3181 12.7344C23.3181 13.6605 23.3181 13.8663 23.3181 16.2329C23.3181 18.5996 23.3181 18.8054 23.3181 19.7315C23.3181 20.5547 23.1108 20.9663 23.0071 21.2749C22.7998 21.6865 22.6962 21.9952 22.3852 22.3039C22.0743 22.6126 21.7633 22.8184 21.3488 22.9213C21.0378 23.0242 20.6232 23.1271 19.794 23.23C18.8612 23.23 18.6539 23.23 16.27 23.23C13.8861 23.23 13.6788 23.23 12.746 23.23C11.9168 23.23 11.5022 23.0242 11.1913 22.9213C10.7767 22.7155 10.4657 22.6126 10.1548 22.3039C9.84384 21.9952 9.63655 21.6865 9.5329 21.2749C9.42925 20.9663 9.3256 20.5547 9.22195 19.7315C9.22195 18.8054 9.22195 18.5996 9.22195 16.2329C9.22195 13.8663 9.22195 13.6605 9.22195 12.7344C9.22195 11.9112 9.42925 11.4996 9.5329 11.1909C9.74019 10.7793 9.84384 10.4706 10.1548 10.1619C10.4657 9.85325 10.7767 9.64745 11.1913 9.54455C11.5022 9.44165 11.9168 9.33875 12.746 9.23586C13.6788 9.23586 13.9898 9.23586 16.27 9.23586ZM16.27 7.69238C13.8861 7.69238 13.6788 7.69238 12.746 7.69238C11.8131 7.69238 11.1913 7.89818 10.673 8.10398C10.1548 8.30977 9.63655 8.61847 9.11831 9.13296C8.60007 9.64745 8.39277 10.059 8.08183 10.6764C7.87453 11.1909 7.77088 11.8083 7.66724 12.7344C7.66724 13.6605 7.66724 13.9692 7.66724 16.2329C7.66724 18.5996 7.66724 18.8054 7.66724 19.7315C7.66724 20.6576 7.87453 21.2749 8.08183 21.7894C8.28912 22.3039 8.60007 22.8184 9.11831 23.3329C9.63655 23.8474 10.0511 24.0532 10.673 24.3619C11.1913 24.5677 11.8131 24.6706 12.746 24.7735C13.6788 24.7735 13.9898 24.7735 16.27 24.7735C18.5503 24.7735 18.8612 24.7735 19.794 24.7735C20.7269 24.7735 21.3488 24.5677 21.867 24.3619C22.3852 24.1561 22.9035 23.8474 23.4217 23.3329C23.9399 22.8184 24.1472 22.4068 24.4582 21.7894C24.6655 21.2749 24.7691 20.6576 24.8728 19.7315C24.8728 18.8054 24.8728 18.4967 24.8728 16.2329C24.8728 13.9692 24.8728 13.6605 24.8728 12.7344C24.8728 11.8083 24.6655 11.1909 24.4582 10.6764C24.2509 10.1619 23.9399 9.64745 23.4217 9.13296C22.9035 8.61847 22.4889 8.41267 21.867 8.10398C21.3488 7.89818 20.7269 7.79528 19.794 7.69238C18.8612 7.69238 18.6539 7.69238 16.27 7.69238Z" fill="white"/>
<path d="M16.27 11.8083C13.7825 11.8083 11.8131 13.7634 11.8131 16.2329C11.8131 18.7025 13.7825 20.6576 16.27 20.6576C18.7576 20.6576 20.7269 18.7025 20.7269 16.2329C20.7269 13.7634 18.7576 11.8083 16.27 11.8083ZM16.27 19.1141C14.7153 19.1141 13.3679 17.8793 13.3679 16.2329C13.3679 14.6895 14.6116 13.3518 16.27 13.3518C17.8247 13.3518 19.1721 14.5866 19.1721 16.2329C19.1721 17.7764 17.8247 19.1141 16.27 19.1141Z" fill="white"/>
<path d="M20.8305 12.7344C21.4029 12.7344 21.867 12.2737 21.867 11.7054C21.867 11.1371 21.4029 10.6764 20.8305 10.6764C20.2581 10.6764 19.794 11.1371 19.794 11.7054C19.794 12.2737 20.2581 12.7344 20.8305 12.7344Z" fill="white"/>
<path d="M68.081 16.2336C68.081 11.537 64.2103 7.69434 59.4794 7.69434C54.7486 7.69434 50.8779 11.537 50.8779 16.2336C50.8779 20.5033 53.996 24.0258 58.0817 24.6662V18.6887H55.9313V16.2336H58.0817V14.3123C58.0817 12.1775 59.3719 11.0033 61.3073 11.0033C62.2749 11.0033 63.2426 11.2168 63.2426 11.2168V13.3516H62.1674C61.0922 13.3516 60.7697 13.9921 60.7697 14.6325V16.2336H63.1351L62.705 18.6887H60.6622V24.7729C64.9629 24.1325 68.081 20.5033 68.081 16.2336Z" fill="white"/>
<path d="M110.855 12.0714C110.64 11.3242 110.103 10.7905 109.35 10.5771C108.06 10.2568 102.577 10.2568 102.577 10.2568C102.577 10.2568 97.2006 10.2568 95.8028 10.5771C95.0502 10.7905 94.5126 11.3242 94.2976 12.0714C94.0825 13.4591 94.0825 16.2343 94.0825 16.2343C94.0825 16.2343 94.0825 19.0096 94.4051 20.3973C94.6201 21.1444 95.1577 21.6782 95.9103 21.8916C97.2006 22.2119 102.684 22.2119 102.684 22.2119C102.684 22.2119 108.06 22.2119 109.458 21.8916C110.21 21.6782 110.748 21.1444 110.963 20.3973C111.286 19.0096 111.286 16.2343 111.286 16.2343C111.286 16.2343 111.286 13.4591 110.855 12.0714ZM100.964 18.7961V13.6726L105.48 16.2343L100.964 18.7961Z" fill="white"/>
<path d="M154.493 10.899C153.848 11.2192 153.203 11.3259 152.45 11.4327C153.203 11.0057 153.74 10.3653 153.955 9.51133C153.31 9.9383 152.558 10.1518 151.698 10.3653C151.052 9.72482 150.085 9.29785 149.117 9.29785C146.859 9.29785 145.139 11.4327 145.677 13.5675C142.774 13.4608 140.193 12.0731 138.365 9.9383C137.398 11.5394 137.935 13.5675 139.44 14.6349C138.903 14.6349 138.365 14.4214 137.828 14.208C137.828 15.8091 139.01 17.3034 140.623 17.7304C140.086 17.8372 139.548 17.9439 139.01 17.8372C139.44 19.2248 140.731 20.2922 142.343 20.2922C141.053 21.2529 139.118 21.7866 137.29 21.5731C138.903 22.5338 140.731 23.1742 142.666 23.1742C149.225 23.1742 152.88 17.7304 152.665 12.7136C153.418 12.2866 154.063 11.6462 154.493 10.899Z" fill="white"/>
<path d="M189.099 7.69238C184.348 7.69238 180.498 11.5151 180.498 16.2317C180.498 19.8509 182.766 22.9397 185.964 24.1839C185.89 23.5068 185.82 22.4727 185.994 21.7355C186.152 21.0684 187.002 17.4926 187.002 17.4926C187.002 17.4926 186.744 16.9822 186.744 16.225C186.744 15.0375 187.436 14.1502 188.299 14.1502C189.032 14.1502 189.388 14.6973 189.388 15.3544C189.388 16.0883 188.918 17.1824 188.676 18.1964C188.474 19.047 189.106 19.7408 189.949 19.7408C191.478 19.7408 192.654 18.1397 192.654 15.8314C192.654 13.7866 191.176 12.3556 189.062 12.3556C186.616 12.3556 185.178 14.1769 185.178 16.0616C185.178 16.7954 185.464 17.5826 185.82 18.0096C185.89 18.093 185.9 18.1697 185.88 18.2531C185.816 18.5233 185.669 19.1037 185.642 19.2204C185.605 19.3772 185.517 19.4106 185.353 19.3339C184.278 18.8368 183.606 17.2791 183.606 16.0249C183.606 13.3297 185.578 10.8579 189.287 10.8579C192.271 10.8579 194.589 12.9694 194.589 15.7914C194.589 18.7334 192.721 21.1018 190.127 21.1018C189.257 21.1018 188.437 20.6514 188.155 20.1211C188.155 20.1211 187.725 21.7522 187.621 22.1525C187.426 22.893 186.902 23.8237 186.552 24.3907C187.359 24.6376 188.212 24.771 189.099 24.771C193.85 24.771 197.701 20.9483 197.701 16.2317C197.701 11.5151 193.85 7.69238 189.099 7.69238Z" fill="white"/>
</svg>
