<svg width="30" height="26" viewBox="0 0 30 26" fill="none" xmlns="http://www.w3.org/2000/svg">
<path d="M14.9999 5.24902L4.30051 14.8549C4.30051 14.8685 4.29738 14.8884 4.29112 14.9156C4.285 14.9426 4.28174 14.9622 4.28174 14.9761V24.7031C4.28174 25.0543 4.39964 25.3587 4.63538 25.615C4.87105 25.8714 5.15013 26.0004 5.47269 26.0004H12.6178V18.2186H17.382V26.0007H24.5271C24.8495 26.0007 25.129 25.872 25.3644 25.615C25.6001 25.3589 25.7184 25.0544 25.7184 24.7031V14.9761C25.7184 14.9222 25.7116 14.8814 25.6996 14.8549L14.9999 5.24902Z" fill="#F3F2EE"/>
<path d="M29.7931 12.6657L25.7182 8.97754V0.709433C25.7182 0.520416 25.6624 0.364973 25.5504 0.243315C25.4394 0.1218 25.2966 0.0610418 25.1227 0.0610418H21.55C21.3763 0.0610418 21.2336 0.1218 21.1218 0.243315C21.0103 0.364973 20.9546 0.520487 20.9546 0.709433V4.66103L16.4144 0.526875C16.0178 0.175601 15.5463 0 15.0004 0C14.4546 0 13.9832 0.175601 13.5863 0.526875L0.206772 12.6657C0.0827437 12.7736 0.0147659 12.9188 0.00212194 13.1013C-0.0104569 13.2835 0.0328846 13.4427 0.132277 13.5777L1.28594 15.0774C1.38534 15.1989 1.51543 15.2732 1.67673 15.3004C1.82566 15.314 1.97459 15.2666 2.12351 15.1586L15.0001 3.4654L27.8767 15.1585C27.9762 15.2528 28.1062 15.2998 28.2675 15.2998H28.3234C28.4845 15.2731 28.6143 15.1983 28.7142 15.0771L29.868 13.5777C29.9672 13.4424 30.0107 13.2835 29.9978 13.101C29.9851 12.9191 29.9168 12.7738 29.7931 12.6657Z" fill="#F3F2EE"/>
</svg>
