<svg width="214" height="246" viewBox="0 0 214 246" fill="none" xmlns="http://www.w3.org/2000/svg">
<path d="M182.037 124.755C181.138 123.861 180.065 123.15 178.881 122.664C177.697 122.177 176.425 121.925 175.14 121.922C173.854 121.919 172.581 122.164 171.395 122.645C170.208 123.125 169.131 123.831 168.228 124.72C167.324 125.61 166.611 126.665 166.131 127.825C165.651 128.985 165.412 130.227 165.43 131.478C165.448 132.728 165.722 133.963 166.235 135.11C166.748 136.256 167.49 137.292 168.419 138.157C176.637 146.025 183.156 155.411 187.595 165.765C192.035 176.118 194.304 187.23 194.27 198.448C194.27 209.975 160.312 226.723 107.099 226.723C53.886 226.723 19.928 209.966 19.928 198.429C19.895 187.288 22.1337 176.25 26.5146 165.956C30.8954 155.662 37.3314 146.316 45.4497 138.458C46.3748 137.589 47.1127 136.549 47.6203 135.399C48.1279 134.249 48.3951 133.013 48.4063 131.761C48.4175 130.51 48.1724 129.269 47.6854 128.11C47.1984 126.952 46.4792 125.9 45.5698 125.015C44.6604 124.13 43.579 123.43 42.3886 122.956C41.1983 122.482 39.9229 122.244 38.6368 122.255C37.3508 122.265 36.0798 122.525 34.8981 123.019C33.7164 123.513 32.6477 124.231 31.7542 125.132C21.8298 134.737 13.9623 146.164 8.60721 158.749C3.25209 171.334 0.515742 184.827 0.556603 198.448C0.556603 229.061 55.4454 245.573 107.099 245.573C158.753 245.573 213.642 229.061 213.642 198.448C213.685 184.735 210.911 171.152 205.484 158.497C200.056 145.842 192.085 134.37 182.037 124.755Z" fill="#F3F2EE"/>
<path d="M107.103 132.47C120.513 132.47 133.621 128.601 144.771 121.351C155.921 114.102 164.611 103.798 169.742 91.7426C174.874 79.6873 176.217 66.422 173.601 53.6242C170.984 40.8264 164.527 29.0708 155.045 19.8441C145.563 10.6173 133.482 4.33387 120.331 1.78822C107.179 -0.757425 93.5464 0.549094 81.1576 5.54256C68.7688 10.536 58.18 18.9922 50.73 29.8416C43.2801 40.6911 39.3037 53.4467 39.3037 66.4952C39.3242 83.9867 46.474 100.756 59.1845 113.124C71.8949 125.493 89.1282 132.45 107.103 132.47ZM107.103 19.3704C116.682 19.3704 126.045 22.1343 134.009 27.3124C141.973 32.4905 148.18 39.8504 151.845 48.4613C155.511 57.0723 156.47 66.5475 154.601 75.6888C152.733 84.8301 148.12 93.2269 141.348 99.8175C134.575 106.408 125.946 110.896 116.551 112.714C107.157 114.533 97.4199 113.6 88.5707 110.033C79.7216 106.466 72.1581 100.426 66.8367 92.6763C61.5154 84.9267 58.6751 75.8156 58.6751 66.4952C58.6905 54.0015 63.7977 42.0239 72.8764 33.1895C81.9552 24.3551 94.2642 19.3854 107.103 19.3704Z" fill="#F3F2EE"/>
</svg>
